HIERARCHY
ROOT Hips
{
	OFFSET 0.00000 0.00000 0.00000
	CHANNELS 6 Xposition Yposition Zposition Zrotation Yrotation Xrotation 
	JOINT LHipJoint
	{
		OFFSET 0 0 0
		CHANNELS 3 Zrotation Yrotation Xrotation
		JOINT LeftHip
		{
			OFFSET 1.41496 -1.84582 0.78394
			CHANNELS 3 Zrotation Yrotation Xrotation
			JOINT LeftKnee
			{
				OFFSET 2.58040 -7.08960 0.00000
				CHANNELS 3 Zrotation Yrotation Xrotation
				JOINT LeftAnkle
				{
					OFFSET 2.64719 -7.27309 0.00000
					CHANNELS 3 Zrotation Yrotation Xrotation
					JOINT LeftToe
					{
						OFFSET 0.20718 -0.56921 2.20259
						CHANNELS 3 Zrotation Yrotation Xrotation
						End Site
						{
							OFFSET 0.00000 -0.00000 1.14243
						}
					}
				}
			}
		}
	}
	JOINT RHipJoint
	{
		OFFSET 0 0 0
		CHANNELS 3 Zrotation Yrotation Xrotation
		JOINT RightHip
		{
			OFFSET -1.40551 -1.84582 0.78394
			CHANNELS 3 Zrotation Yrotation Xrotation
			JOINT RightKnee
			{
				OFFSET -2.56572 -7.04926 0.00000
				CHANNELS 3 Zrotation Yrotation Xrotation
				JOINT RightAnkle
				{
					OFFSET -2.57974 -7.08778 0.00000
					CHANNELS 3 Zrotation Yrotation Xrotation
					JOINT RightToe
					{
						OFFSET -0.26704 -0.73369 2.20815
						CHANNELS 3 Zrotation Yrotation Xrotation
						End Site
						{
							OFFSET -0.00000 -0.00000 1.16246
						}
					}
				}
			}
		}
	}
	JOINT lowerback
	{
		OFFSET 0 0 0
		CHANNELS 3 Zrotation Yrotation Xrotation
		JOINT Chest
		{
			OFFSET -0.04690 2.05196 -0.07017
			CHANNELS 3 Zrotation Yrotation Xrotation
			JOINT Chest2
			{
				OFFSET 0.04085 2.05260 0.00800
				CHANNELS 3 Zrotation Yrotation Xrotation
				JOINT lowerneck
				{
					OFFSET 0 0 0
					CHANNELS 3 Zrotation Yrotation Xrotation
					JOINT Neck
					{
						OFFSET -0.03582 1.80995 0.19301
						CHANNELS 3 Zrotation Yrotation Xrotation
						JOINT Head
						{
							OFFSET 0.00952 1.80195 -0.36389
							CHANNELS 3 Zrotation Yrotation Xrotation
							End Site
							{
								OFFSET 0.00392 1.85062 -0.14494
							}
						}
					}
				}
				JOINT LeftCollar
				{
					OFFSET 0 0 0
					CHANNELS 3 Zrotation Yrotation Xrotation
					JOINT LeftShoulder
					{
						OFFSET 3.55224 1.39726 -0.13667
CHANNELS 3 Zrotation Xrotation Yrotation
						JOINT LeftElbow
						{
OFFSET 0 -5.145070 -0.000000
CHANNELS 3 Zrotation Xrotation Yrotation
							JOINT LeftWrist
							{
OFFSET 0 -3.506460 0.000000
CHANNELS 3 Zrotation Xrotation Yrotation
								JOINT lhand
								{
									OFFSET 0 0 0
CHANNELS 3 Zrotation Xrotation Yrotation
									JOINT LFingers
									{
OFFSET 0 -0.629970 0.000000
CHANNELS 3 Zrotation Xrotation Yrotation
										End Site
										{
OFFSET 0 -0.507900 0.000000
										}
									}
								}
								JOINT LThumb
								{
OFFSET 0 0.000000 0.000000
CHANNELS 3 Zrotation Xrotation Yrotation
									End Site
									{
OFFSET 0 -0.515650 0.515650
									}
								}
							}
						}
					}
				}
				JOINT RightCollar
				{
					OFFSET 0 0 0
					CHANNELS 3 Zrotation Yrotation Xrotation
					JOINT RightShoulder
					{
						OFFSET -3.06467 1.61290 -0.28813
CHANNELS 3 Zrotation Xrotation Yrotation
						JOINT RightElbow
						{
OFFSET 0 -5.232000 -0.000000
CHANNELS 3 Zrotation Xrotation Yrotation
							JOINT RightWrist
							{
OFFSET 0 -3.656410 0.000000
CHANNELS 3 Zrotation Xrotation Yrotation
								JOINT rhand
								{
									OFFSET 0 0 0
CHANNELS 3 Zrotation Xrotation Yrotation
									JOINT RFingers
									{
OFFSET 0 -0.656810 0.000000
CHANNELS 3 Zrotation Xrotation Yrotation
										End Site
										{
OFFSET 0 -0.529530 0.000000
										}
									}
								}
								JOINT RThumb
								{
OFFSET 0 0.000000 0.000000
CHANNELS 3 Zrotation Xrotation Yrotation
									End Site
									{
OFFSET 0 -0.537620 0.537620
									}
								}
							}
						}
					}
				}
			}
		}
	}
}
MOTION
Frames: 8
Frame Time: 0.008333333333333333
-1.968000 15.638300 42.132500 -173.570000 9.617200 -154.498000 0.000000 0.000000 0.000000 -8.074900 -9.587700 -75.056600 14.403700 19.231900 73.433700 -0.401400 -15.602400 -5.962700 0.358400 -3.846200 -10.644400 0.000000 0.000000 0.000000 22.368800 4.294700 3.287500 -3.712700 -11.768000 34.916000 -0.896200 -24.007900 22.575000 -0.114000 2.177200 -5.995600 5.421900 0.410400 16.270100 4.034400 2.288800 0.263900 0.723200 1.110200 -8.851500 1.145600 -0.097900 -18.065500 -3.393400 0.383500 -1.203800 -1.287100 0.296700 2.783200 -0.000000 -0.000000 0.000000 9.579600 47.770000 -42.495100 86.054700 -59.941100 56.583900 26.570200 -12.097000 2.160100 0.000000 0.000000 0.000000 -7.125000 0.000000 0.000000 -0.011700 27.564900 -0.005000 -0.000000 -0.000000 0.000000 -6.104500 1.090900 45.010300 -83.658900 -59.847500 -54.511200 -24.249500 -3.851200 -0.968300 0.000000 0.000000 0.000000 7.125000 0.000000 -0.000000 1.809300 28.915800 0.709200
-1.952118 15.644653 41.836370 -173.663496 9.293441 -154.528566 0.000000 0.000000 0.000000 -8.862902 -9.635766 -73.073110 14.194353 19.171128 72.796490 -0.285070 -16.670230 -8.458799 0.233319 -3.035304 -8.382820 0.000000 0.000000 0.000000 22.314321 4.073187 1.495437 -4.498305 -12.752223 38.516908 -1.403894 -16.888492 23.374030 -0.980275 5.595551 -15.798937 5.465352 0.211482 16.090780 4.044229 2.016224 0.283139 0.774503 0.980145 -8.734510 1.158126 -0.029396 -17.823550 -3.271076 0.463331 -1.412248 -1.239393 0.346025 2.666570 0.000000 0.000000 0.000000 8.560076 46.355096 -41.626308 86.144899 -59.943737 56.661993 26.596690 -12.178809 2.387607 0.000000 0.000000 0.000000 -7.125000 0.000000 0.000000 0.005021 27.310004 0.002192 0.000000 0.000000 0.000000 -5.617063 2.156812 44.156072 -80.073874 -59.590327 -51.417327 -23.976504 -3.584018 -0.704774 0.000000 0.000000 0.000000 7.125000 0.000000 0.000000 2.027157 29.205337 0.779741
-1.936394 15.654542 41.539902 -173.785997 8.950630 -154.580190 0.000000 0.000000 0.000000 -9.694670 -9.677098 -71.018617 13.943704 19.095515 72.031261 -0.232312 -17.995867 -10.407458 0.163845 -1.396850 -3.847148 0.000000 0.000000 0.000000 22.208010 3.805782 -0.394965 -5.337668 -13.724050 42.203539 -1.637114 -10.687332 23.080306 -1.637257 8.056260 -22.890505 5.483036 0.018166 15.991839 4.054773 1.754316 0.281895 0.838103 0.854500 -8.685702 1.207345 0.032969 -17.658423 -3.193253 0.530448 -1.561474 -1.215029 0.385755 2.585203 0.000000 0.000000 0.000000 7.627468 44.888957 -40.886946 86.222067 -59.945977 56.728802 26.694621 -12.239023 2.502589 0.000000 0.000000 0.000000 -7.125000 0.000000 0.000000 0.078442 27.179214 0.033701 0.000000 0.000000 0.000000 -5.125732 3.236452 43.207955 -76.479710 -59.273415 -48.321706 -23.768174 -3.305551 -0.367702 0.000000 0.000000 0.000000 7.125000 0.000000 0.000000 2.196918 29.574499 0.826483
-1.920991 15.671563 41.242753 -173.966995 8.569394 -154.674285 0.000000 0.000000 0.000000 -10.614705 -9.704847 -68.820926 13.609756 18.989973 71.007841 -0.307768 -19.841451 -11.252037 0.206517 1.910624 5.274928 0.000000 0.000000 0.000000 21.997165 3.445823 -2.483698 -6.285452 -14.670875 46.063059 -1.316771 -6.338098 20.582709 -1.872135 8.585591 -24.512957 5.448755 -0.163852 16.055009 4.066760 1.513924 0.239342 0.926505 0.737750 -8.774404 1.330568 0.082953 -17.648234 -3.205180 0.571921 -1.591260 -1.237744 0.406132 2.574954 0.000000 0.000000 0.000000 6.870151 43.319486 -40.408619 86.272950 -59.947415 56.772853 26.936631 -12.255684 2.390634 0.000000 0.000000 0.000000 -7.125000 0.000000 0.000000 0.266212 27.298721 0.114251 0.000000 0.000000 0.000000 -4.626549 4.343779 42.070482 -72.867116 -58.836022 -45.222559 -23.690260 -3.004327 0.117697 0.000000 0.000000 0.000000 7.125000 0.000000 0.000000 2.269677 30.104249 0.825224
-1.907615 15.679525 40.948704 -174.269179 8.160306 -154.709179 0.000000 0.000000 0.000000 -11.647899 -9.776978 -66.726540 13.283795 18.880219 70.002857 -0.066513 -19.701304 -13.264564 0.332430 3.627353 10.039181 0.000000 0.000000 0.000000 21.661638 3.082169 -4.649632 -7.254215 -15.507441 49.769965 -1.106408 -5.094108 18.815601 -1.592274 7.868063 -22.361579 5.375018 -0.382185 16.001523 4.051331 1.200383 0.163573 1.025753 0.584406 -8.833980 1.422322 0.155704 -17.531124 -3.217147 0.646373 -1.645920 -1.251718 0.442402 2.537211 0.000000 0.000000 0.000000 6.115577 41.708415 -39.949602 86.189417 -59.944999 56.700566 27.235181 -12.178894 2.223728 0.000000 0.000000 0.000000 -7.125000 0.000000 0.000000 0.499080 27.479376 0.211648 0.000000 0.000000 0.000000 -4.165985 5.499579 40.878337 -69.422193 -58.302317 -42.284489 -23.655656 -2.845982 0.468045 0.000000 0.000000 0.000000 7.125000 0.000000 0.000000 2.306279 30.486391 0.817847
-1.895269 15.682881 40.656229 -174.632973 7.737058 -154.713973 0.000000 0.000000 0.000000 -12.738624 -9.871672 -64.684675 12.961893 18.768323 69.007247 0.335759 -18.551605 -15.870880 0.500663 4.535342 12.587901 0.000000 0.000000 0.000000 21.262722 2.716636 -6.854815 -8.233644 -16.287952 53.399281 -0.951960 -5.428835 17.419876 -1.050717 6.516629 -18.291574 5.281223 -0.618981 15.888728 4.021964 0.849654 0.070916 1.130516 0.412458 -8.878751 1.498078 0.240030 -17.359655 -3.229133 0.737592 -1.713225 -1.261247 0.486753 2.485488 0.000000 0.000000 0.000000 5.362396 40.076193 -39.500403 86.037546 -59.940624 56.569132 27.562477 -12.054592 2.028885 0.000000 0.000000 0.000000 -7.125000 0.000000 0.000000 0.754875 27.691120 0.317610 0.000000 0.000000 0.000000 -3.725056 6.680024 39.658396 -66.062517 -57.719646 -39.428312 -23.643070 -2.760277 0.749731 0.000000 0.000000 0.000000 7.125000 0.000000 0.000000 2.324498 30.793489 0.807358
-1.885426 15.715858 40.359643 -175.589185 7.500713 -154.858826 0.000000 0.000000 0.000000 -14.317467 -10.164535 -62.874354 12.691009 18.666262 68.161647 0.513639 -18.562365 -17.226087 0.499037 4.528778 12.569320 0.000000 0.000000 0.000000 20.183123 2.619718 -9.449539 -9.299968 -16.964759 57.074489 -0.790957 -6.057745 15.828427 -0.724314 5.345006 -14.917808 4.587083 -0.848148 15.965400 3.857127 0.379309 -0.059050 1.460208 0.196108 -9.067572 1.535809 0.336813 -17.291055 -3.233610 0.853127 -1.713958 -1.260704 0.542129 2.476141 0.000000 0.000000 0.000000 4.712322 38.150207 -39.241861 85.966790 -59.938454 56.507847 28.142890 -11.538962 1.632418 0.000000 0.000000 0.000000 -7.125000 0.000000 0.000000 1.213188 28.129342 0.494852 0.000000 0.000000 0.000000 -3.288061 7.646149 38.202979 -62.333324 -56.849170 -36.299765 -24.165090 -3.186233 1.032370 0.000000 0.000000 0.000000 7.125000 0.000000 0.000000 1.916821 31.108752 0.653236
-1.874698 15.737712 40.066745 -176.474688 7.246879 -154.988838 0.000000 0.000000 0.000000 -15.791869 -10.431572 -61.048590 12.423946 18.563279 67.325561 0.695478 -18.595212 -18.582703 0.550995 4.733824 13.155090 0.000000 0.000000 0.000000 19.164656 2.484458 -11.953217 -10.379749 -17.598854 60.725987 -0.632162 -6.319566 14.153434 -0.461855 4.335163 -12.025123 3.951713 -1.071784 16.025105 3.709404 -0.070181 -0.174614 1.770474 -0.009767 -9.227648 1.572917 0.425559 -17.222777 -3.228709 0.959325 -1.736018 -1.257526 0.594169 2.459101 0.000000 0.000000 0.000000 4.097535 36.243357 -39.004116 85.926158 -59.937215 56.472660 28.628134 -11.111946 1.290352 0.000000 0.000000 0.000000 -7.125000 0.000000 0.000000 1.597260 28.508691 0.640871 0.000000 0.000000 0.000000 -2.862632 8.617950 36.710771 -58.839988 -55.968155 -33.383379 -24.561503 -3.542316 1.351834 0.000000 0.000000 0.000000 7.125000 0.000000 0.000000 1.609988 31.463751 0.533545
